<svg width="65" height="60" viewBox="0 0 65 60" fill="none" xmlns="http://www.w3.org/2000/svg">
<path d="M23.6364 0H11.8182V6H5.90909V12H0V30H5.90909V36H11.8182V42H17.7273V48H23.6364V54H29.5455V60H35.4545V54H41.3636V48H47.2727V42H53.1818V36H59.0909V30H65V12H59.0909V6H53.1818V0H41.3636V6H35.4545V12H29.5455V6H23.6364V0ZM23.6364 6V12H29.5455V18H35.4545V12H41.3636V6H53.1818V12H59.0909V30H53.1818V36H47.2727V42H41.3636V48H35.4545V54H29.5455V48H23.6364V42H17.7273V36H11.8182V30H5.90909V12H11.8182V6H23.6364Z" fill="white"/>
</svg>
